<?xml version="1.0" encoding="UTF-8" standalone="no"?>
<!-- Created with Inkscape (http://www.inkscape.org/) -->

<svg
   xmlns:dc="http://purl.org/dc/elements/1.1/"
   xmlns:cc="http://creativecommons.org/ns#"
   xmlns:rdf="http://www.w3.org/1999/02/22-rdf-syntax-ns#"
   xmlns:svg="http://www.w3.org/2000/svg"
   xmlns="http://www.w3.org/2000/svg"
   xmlns:sodipodi="http://sodipodi.sourceforge.net/DTD/sodipodi-0.dtd"
   xmlns:inkscape="http://www.inkscape.org/namespaces/inkscape"
   width="210mm"
   height="297mm"
   viewBox="0 0 210 297"
   version="1.1"
   id="svg8"
   inkscape:version="0.92.4 (5da689c313, 2019-01-14)"
   sodipodi:docname="keyboard_lasercut_PC_cyberpunk.svg">
  <defs
     id="defs2" />
  <sodipodi:namedview
     id="base"
     pagecolor="#ffffff"
     bordercolor="#666666"
     borderopacity="1.0"
     inkscape:pageopacity="0.0"
     inkscape:pageshadow="2"
     inkscape:zoom="0.94211137"
     inkscape:cx="195.83646"
     inkscape:cy="567.63009"
     inkscape:document-units="mm"
     inkscape:current-layer="g1341"
     showgrid="false"
     inkscape:window-width="1920"
     inkscape:window-height="1052"
     inkscape:window-x="0"
     inkscape:window-y="0"
     inkscape:window-maximized="1" />
  <metadata
     id="metadata5">
    <rdf:RDF>
      <cc:Work
         rdf:about="">
        <dc:format>image/svg+xml</dc:format>
        <dc:type
           rdf:resource="http://purl.org/dc/dcmitype/StillImage" />
        <dc:title />
      </cc:Work>
    </rdf:RDF>
  </metadata>
  <g
     id="g1341"
     inkscape:groupmode="layer"
     inkscape:label="Layer1"
     style="display:inline">
    <g
       id="g1496"
       transform="translate(-4.9941268,33.354967)">
      <path
         style="fill:none;stroke:#000000;stroke-width:0.1;stroke-linecap:butt;stroke-linejoin:miter;stroke-miterlimit:4;stroke-dasharray:none;stroke-opacity:1"
         d="m 104.96396,26.456647 v 0.782161 h -3.4979 v -0.782161 h -4.996583 v 0.782161 h -3.50083 v 0 -0.782161 h -0.84321 v -13.68781 h 0.84321 v -0.782161 h 3.50083 v 0.782161 h 4.996583 v -0.782161 h 3.4979 v 0.782161 h 0.84906 v 13.68781 z"
         id="path1245"
         inkscape:connector-curvature="0"
         sodipodi:nodetypes="cccccccccccccccccccccc" />
      <path
         style="opacity:0.97000002;fill:none;stroke:#000000;stroke-width:0.1;stroke-linecap:butt;stroke-linejoin:miter;stroke-miterlimit:4;stroke-dasharray:none;stroke-opacity:1"
         d="m 85.963957,26.45665 v 0.782161 h -3.4979 V 26.45665 h -4.99658 v 0.782161 h -3.50083 v 0 -0.782161 h -0.84321 V 12.76884 h 0.84321 v -0.782161 h 3.50083 v 0.782161 h 4.99658 v -0.782161 h 3.4979 v 0.782161 h 0.84906 v 13.68781 z"
         id="path1245-626"
         inkscape:connector-curvature="0"
         sodipodi:nodetypes="cccccccccccccccccccccc" />
      <path
         style="fill:none;stroke:#000000;stroke-width:0.1;stroke-linecap:butt;stroke-linejoin:miter;stroke-miterlimit:4;stroke-dasharray:none;stroke-opacity:1"
         d="m 66.963955,26.456654 v 0.782161 h -3.4979 v -0.782161 h -4.99658 v 0.782161 h -3.50083 v 0 -0.782161 h -0.84321 v -13.68781 h 0.84321 v -0.782161 h 3.50083 v 0.782161 h 4.99658 v -0.782161 h 3.4979 v 0.782161 h 0.84906 v 13.68781 z"
         id="path1245-22"
         inkscape:connector-curvature="0"
         sodipodi:nodetypes="cccccccccccccccccccccc" />
      <path
         style="opacity:0.97000002;fill:none;stroke:#000000;stroke-width:0.1;stroke-linecap:butt;stroke-linejoin:miter;stroke-miterlimit:4;stroke-dasharray:none;stroke-opacity:1"
         d="m 47.963959,26.456657 v 0.782161 h -3.4979 v -0.782161 h -4.99658 v 0.782161 h -3.50083 v 0 -0.782161 h -0.84321 v -13.68781 h 0.84321 v -0.782161 h 3.50083 v 0.782161 h 4.99658 v -0.782161 h 3.4979 v 0.782161 h 0.84906 v 13.68781 z"
         id="path1245-626-4"
         inkscape:connector-curvature="0"
         sodipodi:nodetypes="cccccccccccccccccccccc" />
      <path
         style="display:inline;fill:none;stroke:#000000;stroke-width:0.1;stroke-linecap:butt;stroke-linejoin:miter;stroke-miterlimit:4;stroke-dasharray:none;stroke-opacity:1"
         d="m 104.96396,45.455408 v 0.782161 h -3.4979 v -0.782161 h -4.996582 v 0.782161 h -3.500829 v 0 -0.782161 h -0.843212 v -13.68781 h 0.843212 v -0.782161 h 3.500829 v 0.782161 h 4.996582 v -0.782161 h 3.4979 v 0.782161 h 0.84906 v 13.68781 z"
         id="path1245-8"
         inkscape:connector-curvature="0"
         sodipodi:nodetypes="cccccccccccccccccccccc" />
      <path
         style="display:inline;opacity:0.97000002;fill:none;stroke:#000000;stroke-width:0.1;stroke-linecap:butt;stroke-linejoin:miter;stroke-miterlimit:4;stroke-dasharray:none;stroke-opacity:1"
         d="m 85.963958,45.455411 v 0.782161 h -3.4979 v -0.782161 h -4.996579 v 0.782161 h -3.500832 v 0 -0.782161 h -0.843209 v -13.68781 h 0.843209 V 30.98544 h 3.500832 v 0.782161 h 4.996579 V 30.98544 h 3.4979 v 0.782161 h 0.849061 v 13.68781 z"
         id="path1245-626-8"
         inkscape:connector-curvature="0"
         sodipodi:nodetypes="cccccccccccccccccccccc" />
      <path
         style="display:inline;fill:none;stroke:#000000;stroke-width:0.1;stroke-linecap:butt;stroke-linejoin:miter;stroke-miterlimit:4;stroke-dasharray:none;stroke-opacity:1"
         d="m 66.963957,45.455415 v 0.782161 h -3.4979 v -0.782161 h -4.996581 v 0.782161 h -3.50083 v 0 -0.782161 h -0.84321 v -13.68781 h 0.84321 v -0.782161 h 3.50083 v 0.782161 h 4.996581 v -0.782161 h 3.4979 v 0.782161 h 0.849058 v 13.68781 z"
         id="path1245-22-4"
         inkscape:connector-curvature="0"
         sodipodi:nodetypes="cccccccccccccccccccccc" />
      <path
         style="display:inline;opacity:0.97000002;fill:none;stroke:#000000;stroke-width:0.1;stroke-linecap:butt;stroke-linejoin:miter;stroke-miterlimit:4;stroke-dasharray:none;stroke-opacity:1"
         d="m 47.96396,45.455418 v 0.782161 h -3.4979 v -0.782161 h -4.996581 v 0.782161 h -3.50083 v 0 -0.782161 h -0.84321 v -13.68781 h 0.84321 v -0.782161 h 3.50083 v 0.782161 h 4.996581 v -0.782161 h 3.4979 v 0.782161 h 0.84906 v 13.68781 z"
         id="path1245-626-4-5"
         inkscape:connector-curvature="0"
         sodipodi:nodetypes="cccccccccccccccccccccc" />
      <path
         style="display:inline;fill:none;stroke:#000000;stroke-width:0.1;stroke-linecap:butt;stroke-linejoin:miter;stroke-miterlimit:4;stroke-dasharray:none;stroke-opacity:1"
         d="m 104.96396,64.454169 v 0.782161 h -3.4979 v -0.782161 h -4.996582 v 0.782161 h -3.500829 v 0 -0.782161 h -0.843212 v -13.68781 h 0.843212 v -0.782161 h 3.500829 v 0.782161 h 4.996582 v -0.782161 h 3.4979 v 0.782161 h 0.84906 v 13.68781 z"
         id="path1245-5"
         inkscape:connector-curvature="0"
         sodipodi:nodetypes="cccccccccccccccccccccc" />
      <path
         style="display:inline;opacity:0.97000002;fill:none;stroke:#000000;stroke-width:0.1;stroke-linecap:butt;stroke-linejoin:miter;stroke-miterlimit:4;stroke-dasharray:none;stroke-opacity:1"
         d="m 85.963958,64.454172 v 0.782161 h -3.4979 v -0.782161 h -4.996579 v 0.782161 h -3.500832 v 0 -0.782161 h -0.843209 v -13.68781 h 0.843209 v -0.782161 h 3.500832 v 0.782161 h 4.996579 v -0.782161 h 3.4979 v 0.782161 h 0.849061 v 13.68781 z"
         id="path1245-626-6"
         inkscape:connector-curvature="0"
         sodipodi:nodetypes="cccccccccccccccccccccc" />
      <path
         style="display:inline;fill:none;stroke:#000000;stroke-width:0.1;stroke-linecap:butt;stroke-linejoin:miter;stroke-miterlimit:4;stroke-dasharray:none;stroke-opacity:1"
         d="m 66.963957,64.454176 v 0.782161 h -3.4979 v -0.782161 h -4.996581 v 0.782161 h -3.50083 v 0 -0.782161 h -0.84321 v -13.68781 h 0.84321 v -0.782161 h 3.50083 v 0.782161 h 4.996581 v -0.782161 h 3.4979 v 0.782161 h 0.849058 v 13.68781 z"
         id="path1245-22-8"
         inkscape:connector-curvature="0"
         sodipodi:nodetypes="cccccccccccccccccccccc" />
      <path
         style="display:inline;opacity:0.97000002;fill:none;stroke:#000000;stroke-width:0.1;stroke-linecap:butt;stroke-linejoin:miter;stroke-miterlimit:4;stroke-dasharray:none;stroke-opacity:1"
         d="m 47.96396,64.454179 v 0.782161 h -3.4979 v -0.782161 h -4.996581 v 0.782161 h -3.50083 v 0 -0.782161 h -0.84321 v -13.68781 h 0.84321 v -0.782161 h 3.50083 v 0.782161 h 4.996581 v -0.782161 h 3.4979 v 0.782161 h 0.84906 v 13.68781 z"
         id="path1245-626-4-4"
         inkscape:connector-curvature="0"
         sodipodi:nodetypes="cccccccccccccccccccccc" />
      <path
         style="display:inline;fill:none;stroke:#000000;stroke-width:0.1;stroke-linecap:butt;stroke-linejoin:miter;stroke-miterlimit:4;stroke-dasharray:none;stroke-opacity:1"
         d="m 104.96396,83.45293 v 0.782161 h -3.4979 V 83.45293 h -4.99658 v 0.782161 h -3.500829 v 0 -0.782161 H 92.125437 V 69.76512 h 0.843214 v -0.782161 h 3.500829 v 0.782161 h 4.99658 v -0.782161 h 3.4979 v 0.782161 h 0.84906 v 13.68781 z"
         id="path1245-8-8"
         inkscape:connector-curvature="0"
         sodipodi:nodetypes="cccccccccccccccccccccc" />
      <path
         style="display:inline;opacity:0.97000002;fill:none;stroke:#000000;stroke-width:0.1;stroke-linecap:butt;stroke-linejoin:miter;stroke-miterlimit:4;stroke-dasharray:none;stroke-opacity:1"
         d="m 85.963958,83.452932 v 0.782162 h -3.4979 v -0.782162 h -4.996577 v 0.782162 h -3.500834 v 0 -0.782162 H 73.125438 V 69.765123 h 0.843209 v -0.782161 h 3.500834 v 0.782161 h 4.996577 v -0.782161 h 3.4979 v 0.782161 h 0.849061 v 13.687809 z"
         id="path1245-626-8-3"
         inkscape:connector-curvature="0"
         sodipodi:nodetypes="cccccccccccccccccccccc" />
      <path
         style="display:inline;fill:none;stroke:#000000;stroke-width:0.1;stroke-linecap:butt;stroke-linejoin:miter;stroke-miterlimit:4;stroke-dasharray:none;stroke-opacity:1"
         d="m 66.963959,83.452938 v 0.782161 h -3.4979 v -0.782161 h -4.996582 v 0.782161 h -3.50083 v 0 -0.782161 h -0.84321 V 69.765127 h 0.84321 v -0.782161 h 3.50083 v 0.782161 h 4.996582 v -0.782161 h 3.4979 v 0.782161 h 0.849056 v 13.687811 z"
         id="path1245-22-4-8"
         inkscape:connector-curvature="0"
         sodipodi:nodetypes="cccccccccccccccccccccc" />
      <path
         style="display:inline;opacity:0.97000002;fill:none;stroke:#000000;stroke-width:0.1;stroke-linecap:butt;stroke-linejoin:miter;stroke-miterlimit:4;stroke-dasharray:none;stroke-opacity:1"
         d="m 47.963961,83.45294 v 0.782161 H 44.46606 V 83.45294 h -4.996581 v 0.782161 h -3.50083 v 0 -0.782161 h -0.84321 V 69.76513 h 0.84321 v -0.782161 h 3.50083 v 0.782161 h 4.996581 v -0.782161 h 3.497901 v 0.782161 h 0.84906 v 13.68781 z"
         id="path1245-626-4-5-7"
         inkscape:connector-curvature="0"
         sodipodi:nodetypes="cccccccccccccccccccccc" />
      <path
         style="display:inline;fill:none;stroke:#000000;stroke-width:0.1;stroke-linecap:butt;stroke-linejoin:miter;stroke-miterlimit:4;stroke-dasharray:none;stroke-opacity:1"
         d="m 104.96396,102.45169 v 0.78217 h -3.4979 v -0.78217 h -4.996587 v 0.78217 h -3.500825 v 0 -0.78217 H 92.125436 V 88.763882 h 0.843212 v -0.782161 h 3.500825 v 0.782161 h 4.996587 v -0.782161 h 3.4979 v 0.782161 h 0.84906 v 13.687808 z"
         id="path1245-2"
         inkscape:connector-curvature="0"
         sodipodi:nodetypes="cccccccccccccccccccccc" />
      <path
         style="display:inline;opacity:0.97000002;fill:none;stroke:#000000;stroke-width:0.1;stroke-linecap:butt;stroke-linejoin:miter;stroke-miterlimit:4;stroke-dasharray:none;stroke-opacity:1"
         d="m 85.963957,102.4517 v 0.78216 h -3.4979 v -0.78216 h -4.996579 v 0.78216 h -3.500832 v 0 -0.78216 H 73.125437 V 88.763885 h 0.843209 v -0.782161 h 3.500832 v 0.782161 h 4.996579 v -0.782161 h 3.4979 v 0.782161 h 0.849061 V 102.4517 Z"
         id="path1245-626-45"
         inkscape:connector-curvature="0"
         sodipodi:nodetypes="cccccccccccccccccccccc" />
      <path
         style="display:inline;fill:none;stroke:#000000;stroke-width:0.1;stroke-linecap:butt;stroke-linejoin:miter;stroke-miterlimit:4;stroke-dasharray:none;stroke-opacity:1"
         d="m 66.963956,102.4517 v 0.78216 h -3.4979 v -0.78216 h -4.996581 v 0.78216 h -3.50083 v 0 -0.78216 h -0.84321 V 88.763889 h 0.84321 v -0.782161 h 3.50083 v 0.782161 h 4.996581 v -0.782161 h 3.4979 v 0.782161 h 0.849058 V 102.4517 Z"
         id="path1245-22-0"
         inkscape:connector-curvature="0"
         sodipodi:nodetypes="cccccccccccccccccccccc" />
      <path
         style="display:inline;opacity:0.97000002;fill:none;stroke:#000000;stroke-width:0.1;stroke-linecap:butt;stroke-linejoin:miter;stroke-miterlimit:4;stroke-dasharray:none;stroke-opacity:1"
         d="m 47.963959,102.4517 v 0.78217 h -3.4979 v -0.78217 h -4.99658 v 0.78217 h -3.50083 v 0 -0.78217 h -0.84321 V 88.763892 h 0.84321 v -0.782161 h 3.50083 v 0.782161 h 4.99658 v -0.782161 h 3.4979 v 0.782161 h 0.84906 V 102.4517 Z"
         id="path1245-626-4-57"
         inkscape:connector-curvature="0"
         sodipodi:nodetypes="cccccccccccccccccccccc" />
      <path
         style="display:inline;fill:none;stroke:#000000;stroke-width:0.1;stroke-linecap:butt;stroke-linejoin:miter;stroke-miterlimit:4;stroke-dasharray:none;stroke-opacity:1"
         d="m 104.96396,121.45046 v 0.78216 h -3.4979 v -0.78216 h -4.996577 v 0.78216 H 92.96865 v 0 -0.78216 h -0.843214 v -13.68781 h 0.843214 v -0.78216 h 3.500833 v 0.78216 h 4.996577 v -0.78216 h 3.4979 v 0.78216 h 0.84906 v 13.68781 z"
         id="path1245-8-2"
         inkscape:connector-curvature="0"
         sodipodi:nodetypes="cccccccccccccccccccccc" />
      <path
         style="display:inline;opacity:0.97000002;fill:none;stroke:#000000;stroke-width:0.1;stroke-linecap:butt;stroke-linejoin:miter;stroke-miterlimit:4;stroke-dasharray:none;stroke-opacity:1"
         d="m 85.963957,121.45046 v 0.78216 h -3.4979 v -0.78216 H 77.46948 v 0.78216 h -3.500834 v 0 -0.78216 h -0.843209 v -13.68781 h 0.843209 v -0.78216 h 3.500834 v 0.78216 h 4.996577 v -0.78216 h 3.4979 v 0.78216 h 0.849061 v 13.68781 z"
         id="path1245-626-8-7"
         inkscape:connector-curvature="0"
         sodipodi:nodetypes="cccccccccccccccccccccc" />
      <path
         style="display:inline;fill:none;stroke:#000000;stroke-width:0.1;stroke-linecap:butt;stroke-linejoin:miter;stroke-miterlimit:4;stroke-dasharray:none;stroke-opacity:1"
         d="m 66.963958,121.45046 v 0.78217 h -3.4979 v -0.78217 h -4.996582 v 0.78217 h -3.50083 v 0 -0.78217 h -0.84321 v -13.68781 h 0.84321 v -0.78216 h 3.50083 v 0.78216 h 4.996582 v -0.78216 h 3.4979 v 0.78216 h 0.849056 v 13.68781 z"
         id="path1245-22-4-2"
         inkscape:connector-curvature="0"
         sodipodi:nodetypes="cccccccccccccccccccccc" />
      <path
         style="display:inline;opacity:0.97000002;fill:none;stroke:#000000;stroke-width:0.1;stroke-linecap:butt;stroke-linejoin:miter;stroke-miterlimit:4;stroke-dasharray:none;stroke-opacity:1"
         d="m 47.96396,121.45047 v 0.78216 h -3.4979 v -0.78216 h -4.996581 v 0.78216 h -3.50083 v 0 -0.78216 h -0.84321 v -13.68781 h 0.84321 v -0.78216 h 3.50083 v 0.78216 h 4.996581 v -0.78216 h 3.4979 v 0.78216 h 0.84906 v 13.68781 z"
         id="path1245-626-4-5-1"
         inkscape:connector-curvature="0"
         sodipodi:nodetypes="cccccccccccccccccccccc" />
      <path
         style="display:inline;fill:none;stroke:#000000;stroke-width:0.1;stroke-linecap:butt;stroke-linejoin:miter;stroke-miterlimit:4;stroke-dasharray:none;stroke-opacity:1"
         d="m 104.96396,140.44922 v 0.78216 h -3.4979 v -0.78216 h -4.996577 v 0.78216 H 92.96865 v 0 -0.78216 h -0.843214 v -13.68781 h 0.843214 v -0.78216 h 3.500833 v 0.78216 h 4.996577 v -0.78216 h 3.4979 v 0.78216 h 0.84906 v 13.68781 z"
         id="path1245-5-4"
         inkscape:connector-curvature="0"
         sodipodi:nodetypes="cccccccccccccccccccccc" />
      <path
         style="display:inline;opacity:0.97000002;fill:none;stroke:#000000;stroke-width:0.1;stroke-linecap:butt;stroke-linejoin:miter;stroke-miterlimit:4;stroke-dasharray:none;stroke-opacity:1"
         d="m 85.963957,140.44922 v 0.78216 h -3.4979 v -0.78216 H 77.46948 v 0.78216 h -3.500834 v 0 -0.78216 h -0.843209 v -13.68781 h 0.843209 v -0.78216 h 3.500834 v 0.78216 h 4.996577 v -0.78216 h 3.4979 v 0.78216 h 0.849061 v 13.68781 z"
         id="path1245-626-6-9"
         inkscape:connector-curvature="0"
         sodipodi:nodetypes="cccccccccccccccccccccc" />
      <path
         style="display:inline;fill:none;stroke:#000000;stroke-width:0.1;stroke-linecap:butt;stroke-linejoin:miter;stroke-miterlimit:4;stroke-dasharray:none;stroke-opacity:1"
         d="m 66.963958,140.44922 v 0.78217 h -3.4979 v -0.78217 h -4.996582 v 0.78217 h -3.50083 v 0 -0.78217 h -0.84321 v -13.6878 h 0.84321 v -0.78217 h 3.50083 v 0.78217 h 4.996582 v -0.78217 h 3.4979 v 0.78217 h 0.849056 v 13.6878 z"
         id="path1245-22-8-4"
         inkscape:connector-curvature="0"
         sodipodi:nodetypes="cccccccccccccccccccccc" />
      <path
         style="display:inline;opacity:0.97000002;fill:none;stroke:#000000;stroke-width:0.1;stroke-linecap:butt;stroke-linejoin:miter;stroke-miterlimit:4;stroke-dasharray:none;stroke-opacity:1"
         d="m 47.96396,140.44923 v 0.78216 h -3.4979 v -0.78216 h -4.996581 v 0.78216 h -3.50083 v 0 -0.78216 h -0.84321 v -13.68781 h 0.84321 v -0.78216 h 3.50083 v 0.78216 h 4.996581 v -0.78216 h 3.4979 v 0.78216 h 0.84906 v 13.68781 z"
         id="path1245-626-4-4-1"
         inkscape:connector-curvature="0"
         sodipodi:nodetypes="cccccccccccccccccccccc" />
      <path
         style="display:inline;fill:none;stroke:#000000;stroke-width:0.1;stroke-linecap:butt;stroke-linejoin:miter;stroke-miterlimit:4;stroke-dasharray:none;stroke-opacity:1"
         d="m 104.96396,159.44798 v 0.78216 h -3.4979 v -0.78216 h -4.996577 v 0.78216 H 92.96865 v 0 -0.78216 h -0.843214 v -13.68781 h 0.843214 v -0.78216 h 3.500833 v 0.78216 h 4.996577 v -0.78216 h 3.4979 v 0.78216 h 0.84906 v 13.68781 z"
         id="path1245-8-8-5"
         inkscape:connector-curvature="0"
         sodipodi:nodetypes="cccccccccccccccccccccc" />
      <path
         style="display:inline;opacity:0.97000002;fill:none;stroke:#000000;stroke-width:0.1;stroke-linecap:butt;stroke-linejoin:miter;stroke-miterlimit:4;stroke-dasharray:none;stroke-opacity:1"
         d="m 85.963957,159.44798 v 0.78216 h -3.4979 v -0.78216 H 77.46948 v 0.78216 h -3.500834 v 0 -0.78216 h -0.843209 v -13.68781 h 0.843209 v -0.78216 h 3.500834 v 0.78216 h 4.996577 v -0.78216 h 3.4979 v 0.78216 h 0.849061 v 13.68781 z"
         id="path1245-626-8-3-7"
         inkscape:connector-curvature="0"
         sodipodi:nodetypes="cccccccccccccccccccccc" />
      <path
         style="display:inline;fill:none;stroke:#000000;stroke-width:0.1;stroke-linecap:butt;stroke-linejoin:miter;stroke-miterlimit:4;stroke-dasharray:none;stroke-opacity:1"
         d="m 66.963958,159.44799 v 0.78216 h -3.4979 v -0.78216 h -4.996581 v 0.78216 h -3.50083 v 0 -0.78216 h -0.84321 v -13.68781 h 0.84321 v -0.78216 h 3.50083 v 0.78216 h 4.996581 v -0.78216 h 3.4979 v 0.78216 h 0.849056 v 13.68781 z"
         id="path1245-22-4-8-4"
         inkscape:connector-curvature="0"
         sodipodi:nodetypes="cccccccccccccccccccccc" />
      <path
         style="display:inline;opacity:0.97000002;fill:none;stroke:#000000;stroke-width:0.1;stroke-linecap:butt;stroke-linejoin:miter;stroke-miterlimit:4;stroke-dasharray:none;stroke-opacity:1"
         d="m 47.963961,159.44799 v 0.78216 H 44.46606 v -0.78216 h -4.996581 v 0.78216 h -3.50083 v 0 -0.78216 h -0.84321 v -13.68781 h 0.84321 v -0.78216 h 3.50083 v 0.78216 h 4.996581 v -0.78216 h 3.497901 v 0.78216 h 0.84906 v 13.68781 z"
         id="path1245-626-4-5-7-1"
         inkscape:connector-curvature="0"
         sodipodi:nodetypes="cccccccccccccccccccccc" />
      <path
         style="display:inline;fill:none;stroke:#000000;stroke-width:0.1;stroke-linecap:butt;stroke-linejoin:miter;stroke-miterlimit:4;stroke-dasharray:none;stroke-opacity:1"
         d="m 104.96396,178.44674 v 0.78216 h -3.4979 v -0.78216 h -4.996582 v 0.78216 h -3.500829 v 0 -0.78216 h -0.843212 v -13.68781 h 0.843212 v -0.78216 h 3.500829 v 0.78216 h 4.996582 v -0.78216 h 3.4979 v 0.78216 h 0.84906 v 13.68781 z"
         id="path1245-21"
         inkscape:connector-curvature="0"
         sodipodi:nodetypes="cccccccccccccccccccccc" />
      <path
         style="display:inline;opacity:0.97000002;fill:none;stroke:#000000;stroke-width:0.1;stroke-linecap:butt;stroke-linejoin:miter;stroke-miterlimit:4;stroke-dasharray:none;stroke-opacity:1"
         d="m 85.963958,178.44674 v 0.78216 h -3.4979 v -0.78216 h -4.996579 v 0.78216 h -3.500832 v 0 -0.78216 h -0.843209 v -13.68781 h 0.843209 v -0.78216 h 3.500832 v 0.78216 h 4.996579 v -0.78216 h 3.4979 v 0.78216 h 0.849061 v 13.68781 z"
         id="path1245-626-62"
         inkscape:connector-curvature="0"
         sodipodi:nodetypes="cccccccccccccccccccccc" />
      <path
         style="display:inline;fill:none;stroke:#000000;stroke-width:0.1;stroke-linecap:butt;stroke-linejoin:miter;stroke-miterlimit:4;stroke-dasharray:none;stroke-opacity:1"
         d="m 66.963957,178.44675 v 0.78216 h -3.4979 v -0.78216 h -4.996581 v 0.78216 h -3.50083 v 0 -0.78216 h -0.84321 v -13.68781 h 0.84321 v -0.78217 h 3.50083 v 0.78217 h 4.996581 v -0.78217 h 3.4979 v 0.78217 h 0.849058 v 13.68781 z"
         id="path1245-22-02"
         inkscape:connector-curvature="0"
         sodipodi:nodetypes="cccccccccccccccccccccc" />
      <path
         style="display:inline;opacity:0.97000002;fill:none;stroke:#000000;stroke-width:0.1;stroke-linecap:butt;stroke-linejoin:miter;stroke-miterlimit:4;stroke-dasharray:none;stroke-opacity:1"
         d="m 47.96396,178.44675 v 0.78216 h -3.4979 v -0.78216 h -4.99658 v 0.78216 h -3.500831 v 0 -0.78216 h -0.84321 v -13.68781 h 0.84321 v -0.78216 h 3.500831 v 0.78216 h 4.99658 v -0.78216 h 3.4979 v 0.78216 h 0.84906 v 13.68781 z"
         id="path1245-626-4-2"
         inkscape:connector-curvature="0"
         sodipodi:nodetypes="cccccccccccccccccccccc" />
      <path
         style="display:inline;fill:none;stroke:#000000;stroke-width:0.1;stroke-linecap:butt;stroke-linejoin:miter;stroke-miterlimit:4;stroke-dasharray:none;stroke-opacity:1"
         d="m 104.96396,197.4455 v 0.78216 h -3.4979 v -0.78216 h -4.99658 v 0.78216 h -3.500829 v 0 -0.78216 h -0.843214 v -13.68781 h 0.843214 v -0.78216 h 3.500829 v 0.78216 h 4.99658 v -0.78216 h 3.4979 v 0.78216 h 0.84906 v 13.68781 z"
         id="path1245-8-7"
         inkscape:connector-curvature="0"
         sodipodi:nodetypes="cccccccccccccccccccccc" />
      <path
         style="display:inline;opacity:0.97000002;fill:none;stroke:#000000;stroke-width:0.1;stroke-linecap:butt;stroke-linejoin:miter;stroke-miterlimit:4;stroke-dasharray:none;stroke-opacity:1"
         d="m 85.963958,197.4455 v 0.78216 h -3.4979 v -0.78216 h -4.996577 v 0.78216 h -3.500834 v 0 -0.78216 h -0.843209 v -13.68781 h 0.843209 v -0.78216 h 3.500834 v 0.78216 h 4.996577 v -0.78216 h 3.4979 v 0.78216 h 0.849061 v 13.68781 z"
         id="path1245-626-8-4"
         inkscape:connector-curvature="0"
         sodipodi:nodetypes="cccccccccccccccccccccc" />
      <path
         style="display:inline;fill:none;stroke:#000000;stroke-width:0.1;stroke-linecap:butt;stroke-linejoin:miter;stroke-miterlimit:4;stroke-dasharray:none;stroke-opacity:1"
         d="m 66.963959,197.44551 v 0.78216 h -3.4979 v -0.78216 h -4.996582 v 0.78216 h -3.50083 v 0 -0.78216 h -0.84321 V 183.7577 h 0.84321 v -0.78216 h 3.50083 v 0.78216 h 4.996582 v -0.78216 h 3.4979 v 0.78216 h 0.849056 v 13.68781 z"
         id="path1245-22-4-3"
         inkscape:connector-curvature="0"
         sodipodi:nodetypes="cccccccccccccccccccccc" />
      <path
         style="display:inline;opacity:0.97000002;fill:none;stroke:#000000;stroke-width:0.1;stroke-linecap:butt;stroke-linejoin:miter;stroke-miterlimit:4;stroke-dasharray:none;stroke-opacity:1"
         d="m 47.963961,197.44551 v 0.78216 H 44.46606 v -0.78216 h -4.99658 v 0.78216 h -3.500831 v 0 -0.78216 h -0.84321 V 183.7577 h 0.84321 v -0.78216 h 3.500831 v 0.78216 h 4.99658 v -0.78216 h 3.497901 v 0.78216 h 0.84906 v 13.68781 z"
         id="path1245-626-4-5-5"
         inkscape:connector-curvature="0"
         sodipodi:nodetypes="cccccccccccccccccccccc" />
      <path
         style="display:inline;fill:none;stroke:#000000;stroke-width:0.1;stroke-linecap:butt;stroke-linejoin:miter;stroke-miterlimit:4;stroke-dasharray:none;stroke-opacity:1"
         d="m 104.96396,216.44426 v 0.78216 h -3.4979 v -0.78216 h -4.99658 v 0.78216 h -3.500829 v 0 -0.78216 h -0.843214 v -13.68781 h 0.843214 v -0.78216 h 3.500829 v 0.78216 h 4.99658 v -0.78216 h 3.4979 v 0.78216 h 0.84906 v 13.68781 z"
         id="path1245-5-1"
         inkscape:connector-curvature="0"
         sodipodi:nodetypes="cccccccccccccccccccccc" />
      <path
         style="display:inline;opacity:0.97000002;fill:none;stroke:#000000;stroke-width:0.1;stroke-linecap:butt;stroke-linejoin:miter;stroke-miterlimit:4;stroke-dasharray:none;stroke-opacity:1"
         d="m 85.963958,216.44427 v 0.78215 h -3.4979 v -0.78215 h -4.996577 v 0.78215 h -3.500834 v 0 -0.78215 h -0.843209 v -13.68782 h 0.843209 v -0.78216 h 3.500834 v 0.78216 h 4.996577 v -0.78216 h 3.4979 v 0.78216 h 0.849061 v 13.68782 z"
         id="path1245-626-6-4"
         inkscape:connector-curvature="0"
         sodipodi:nodetypes="cccccccccccccccccccccc" />
      <path
         style="display:inline;fill:none;stroke:#000000;stroke-width:0.1;stroke-linecap:butt;stroke-linejoin:miter;stroke-miterlimit:4;stroke-dasharray:none;stroke-opacity:1"
         d="m 66.963959,216.44427 v 0.78216 h -3.4979 v -0.78216 h -4.996582 v 0.78216 h -3.50083 v 0 -0.78216 h -0.84321 v -13.68781 h 0.84321 v -0.78216 h 3.50083 v 0.78216 h 4.996582 v -0.78216 h 3.4979 v 0.78216 h 0.849056 v 13.68781 z"
         id="path1245-22-8-0"
         inkscape:connector-curvature="0"
         sodipodi:nodetypes="cccccccccccccccccccccc" />
      <path
         style="display:inline;opacity:0.97000002;fill:none;stroke:#000000;stroke-width:0.1;stroke-linecap:butt;stroke-linejoin:miter;stroke-miterlimit:4;stroke-dasharray:none;stroke-opacity:1"
         d="m 47.963961,216.44427 v 0.78216 H 44.46606 v -0.78216 h -4.99658 v 0.78216 h -3.500831 v 0 -0.78216 h -0.84321 v -13.68781 h 0.84321 v -0.78216 h 3.500831 v 0.78216 h 4.99658 v -0.78216 h 3.497901 v 0.78216 h 0.84906 v 13.68781 z"
         id="path1245-626-4-4-3"
         inkscape:connector-curvature="0"
         sodipodi:nodetypes="cccccccccccccccccccccc" />
      <path
         style="display:inline;fill:none;stroke:#000000;stroke-width:0.1;stroke-linecap:butt;stroke-linejoin:miter;stroke-miterlimit:4;stroke-dasharray:none;stroke-opacity:1"
         d="m 104.96396,235.44302 v 0.78216 h -3.4979 v -0.78216 h -4.99658 v 0.78216 h -3.500829 v 0 -0.78216 h -0.843214 v -13.68781 h 0.843214 v -0.78216 h 3.500829 v 0.78216 h 4.99658 v -0.78216 h 3.4979 v 0.78216 h 0.84906 v 13.68781 z"
         id="path1245-8-8-2"
         inkscape:connector-curvature="0"
         sodipodi:nodetypes="cccccccccccccccccccccc" />
      <path
         style="display:inline;opacity:0.97000002;fill:none;stroke:#000000;stroke-width:0.1;stroke-linecap:butt;stroke-linejoin:miter;stroke-miterlimit:4;stroke-dasharray:none;stroke-opacity:1"
         d="m 85.963958,235.44302 v 0.78217 h -3.4979 v -0.78217 h -4.996577 v 0.78217 h -3.500834 v 0 -0.78217 h -0.843209 v -13.68781 h 0.843209 v -0.78216 h 3.500834 v 0.78216 h 4.996577 v -0.78216 h 3.4979 v 0.78216 h 0.849061 v 13.68781 z"
         id="path1245-626-8-3-77"
         inkscape:connector-curvature="0"
         sodipodi:nodetypes="cccccccccccccccccccccc" />
      <path
         style="display:inline;fill:none;stroke:#000000;stroke-width:0.1;stroke-linecap:butt;stroke-linejoin:miter;stroke-miterlimit:4;stroke-dasharray:none;stroke-opacity:1"
         d="m 66.963959,235.44303 v 0.78216 h -3.4979 v -0.78216 h -4.996581 v 0.78216 h -3.50083 v 0 -0.78216 h -0.84321 v -13.68781 h 0.84321 v -0.78216 h 3.50083 v 0.78216 h 4.996581 v -0.78216 h 3.4979 v 0.78216 h 0.849056 v 13.68781 z"
         id="path1245-22-4-8-9"
         inkscape:connector-curvature="0"
         sodipodi:nodetypes="cccccccccccccccccccccc" />
      <path
         style="display:inline;opacity:0.97000002;fill:none;stroke:#000000;stroke-width:0.1;stroke-linecap:butt;stroke-linejoin:miter;stroke-miterlimit:4;stroke-dasharray:none;stroke-opacity:1"
         d="m 47.963962,235.44303 v 0.78216 H 44.46606 v -0.78216 h -4.99658 v 0.78216 h -3.500831 v 0 -0.78216 h -0.84321 v -13.68781 h 0.84321 v -0.78216 h 3.500831 v 0.78216 h 4.99658 v -0.78216 h 3.497902 v 0.78216 h 0.84906 v 13.68781 z"
         id="path1245-626-4-5-7-8"
         inkscape:connector-curvature="0"
         sodipodi:nodetypes="cccccccccccccccccccccc" />
    </g>
    <path
       style="fill:none;stroke:#000000;stroke-width:0.1;stroke-linecap:butt;stroke-linejoin:miter;stroke-miterlimit:4;stroke-dasharray:none;stroke-opacity:1"
       d="m 99.969833,42.127834 3.995967,3.99597 V 268.79799 l -3.995967,3.99597 H 30.974523 L 26.978553,268.798 V 46.123812 l 3.99597,-3.995967 z"
       id="path1352"
       inkscape:connector-curvature="0"
       sodipodi:nodetypes="ccccccccc" />
    <path
       style="display:inline;fill:none;stroke:#000000;stroke-width:0.1;stroke-linecap:butt;stroke-linejoin:miter;stroke-miterlimit:4;stroke-dasharray:none;stroke-opacity:1"
       d="M 103.9658,268.79799 V 46.123804 l 3.99597,-3.995967 3.99597,3.995967 V 268.798 l -3.99597,3.99596 z"
       id="path1352-3"
       inkscape:connector-curvature="0"
       sodipodi:nodetypes="ccccccc" />
    <path
       style="display:inline;fill:none;stroke:#000000;stroke-width:0.1;stroke-linecap:butt;stroke-linejoin:miter;stroke-miterlimit:4;stroke-dasharray:none;stroke-opacity:1"
       d="m 30.974523,42.127845 -3.99596,-3.99597 3.99597,-3.99597 68.9953,-1e-5 3.995967,3.99597 -3.995967,3.99597"
       id="path1352-3-5"
       inkscape:connector-curvature="0"
       sodipodi:nodetypes="cccccc" />
    <circle
       style="opacity:1;fill:none;fill-opacity:1;stroke:#000000;stroke-width:0.1;stroke-linecap:round;stroke-linejoin:miter;stroke-miterlimit:4;stroke-dasharray:none;stroke-dashoffset:0;stroke-opacity:1"
       id="path1494"
       cx="84.472176"
       cy="62.467094"
       r="1.5668676" />
    <circle
       style="display:inline;opacity:1;fill:none;fill-opacity:1;stroke:#000000;stroke-width:0.1;stroke-linecap:round;stroke-linejoin:miter;stroke-miterlimit:4;stroke-dasharray:none;stroke-dashoffset:0;stroke-opacity:1"
       id="path1494-6"
       cx="46.472172"
       cy="62.467102"
       r="1.5668677" />
    <circle
       style="display:inline;opacity:1;fill:none;fill-opacity:1;stroke:#000000;stroke-width:0.1;stroke-linecap:round;stroke-linejoin:miter;stroke-miterlimit:4;stroke-dasharray:none;stroke-dashoffset:0;stroke-opacity:1"
       id="path1494-3"
       cx="46.472176"
       cy="252.45473"
       r="1.5668677" />
    <circle
       style="display:inline;opacity:1;fill:none;fill-opacity:1;stroke:#000000;stroke-width:0.1;stroke-linecap:round;stroke-linejoin:miter;stroke-miterlimit:4;stroke-dasharray:none;stroke-dashoffset:0;stroke-opacity:1"
       id="path1494-8"
       cx="84.472176"
       cy="252.45471"
       r="1.5668677" />
    <circle
       style="display:inline;opacity:1;fill:none;fill-opacity:1;stroke:#000000;stroke-width:0.1;stroke-linecap:round;stroke-linejoin:miter;stroke-miterlimit:4;stroke-dasharray:none;stroke-dashoffset:0;stroke-opacity:1"
       id="path1494-36"
       cx="46.472187"
       cy="119.46339"
       r="1.5668677" />
    <path
       style="display:inline;fill:none;stroke:#000000;stroke-width:0.1;stroke-linecap:butt;stroke-linejoin:miter;stroke-miterlimit:4;stroke-dasharray:none;stroke-opacity:1"
       d="m 123.94565,42.127836 -3.99596,-3.99597 3.99597,-3.99597 68.9953,-1e-5 3.99597,3.99597 -3.99597,3.99597"
       id="path1352-3-5-7"
       inkscape:connector-curvature="0"
       sodipodi:nodetypes="cccccc" />
    <path
       style="display:inline;fill:none;stroke:#000000;stroke-width:0.1;stroke-linecap:butt;stroke-linejoin:miter;stroke-miterlimit:4;stroke-dasharray:none;stroke-opacity:1"
       d="M 111.95774,268.798 V 46.123804 l 3.99597,-3.995967 3.99597,3.995967 V 268.79801 l -3.99597,3.99596 z"
       id="path1352-3-4"
       inkscape:connector-curvature="0"
       sodipodi:nodetypes="ccccccc" />
    <circle
       style="display:inline;opacity:1;fill:none;fill-opacity:1;stroke:#000000;stroke-width:0.1;stroke-linecap:round;stroke-linejoin:miter;stroke-miterlimit:4;stroke-dasharray:none;stroke-dashoffset:0;stroke-opacity:1"
       id="path1494-36-5"
       cx="84.472183"
       cy="119.46338"
       r="1.5668678" />
    <circle
       style="display:inline;opacity:1;fill:none;fill-opacity:1;stroke:#000000;stroke-width:0.1;stroke-linecap:round;stroke-linejoin:miter;stroke-miterlimit:4;stroke-dasharray:none;stroke-dashoffset:0;stroke-opacity:1"
       id="path1494-36-54"
       cx="46.472183"
       cy="195.45844"
       r="1.5668678" />
    <circle
       style="display:inline;opacity:1;fill:none;fill-opacity:1;stroke:#000000;stroke-width:0.1;stroke-linecap:round;stroke-linejoin:miter;stroke-miterlimit:4;stroke-dasharray:none;stroke-dashoffset:0;stroke-opacity:1"
       id="path1494-36-4"
       cx="84.472191"
       cy="195.45842"
       r="1.5668678" />
    <path
       style="display:inline;fill:none;stroke:#000000;stroke-width:0.1;stroke-linecap:butt;stroke-linejoin:miter;stroke-miterlimit:4;stroke-dasharray:none;stroke-opacity:1"
       d="m 119.94968,46.123804 3.99597,-3.995968 68.99531,-1.1e-5 3.99597,3.99597 V 268.79799 l -3.99597,3.99597 h -68.99531 l -3.99597,-3.99596"
       id="path1352-30"
       inkscape:connector-curvature="0"
       sodipodi:nodetypes="cccccccc" />
    <circle
       style="display:inline;opacity:1;fill:none;fill-opacity:1;stroke:#000000;stroke-width:0.1;stroke-linecap:round;stroke-linejoin:miter;stroke-miterlimit:4;stroke-dasharray:none;stroke-dashoffset:0;stroke-opacity:1"
       id="path1494-7"
       cx="177.44331"
       cy="62.467091"
       r="1.5668677" />
    <circle
       style="display:inline;opacity:1;fill:none;fill-opacity:1;stroke:#000000;stroke-width:0.1;stroke-linecap:round;stroke-linejoin:miter;stroke-miterlimit:4;stroke-dasharray:none;stroke-dashoffset:0;stroke-opacity:1"
       id="path1494-6-8"
       cx="139.4433"
       cy="62.467091"
       r="1.5668678" />
    <circle
       style="display:inline;opacity:1;fill:none;fill-opacity:1;stroke:#000000;stroke-width:0.1;stroke-linecap:round;stroke-linejoin:miter;stroke-miterlimit:4;stroke-dasharray:none;stroke-dashoffset:0;stroke-opacity:1"
       id="path1494-3-6"
       cx="139.4433"
       cy="252.45471"
       r="1.5668678" />
    <circle
       style="display:inline;opacity:1;fill:none;fill-opacity:1;stroke:#000000;stroke-width:0.1;stroke-linecap:round;stroke-linejoin:miter;stroke-miterlimit:4;stroke-dasharray:none;stroke-dashoffset:0;stroke-opacity:1"
       id="path1494-8-8"
       cx="177.44331"
       cy="252.45471"
       r="1.5668678" />
    <circle
       style="display:inline;opacity:1;fill:none;fill-opacity:1;stroke:#000000;stroke-width:0.1;stroke-linecap:round;stroke-linejoin:miter;stroke-miterlimit:4;stroke-dasharray:none;stroke-dashoffset:0;stroke-opacity:1"
       id="path1494-36-8"
       cx="139.44331"
       cy="119.46338"
       r="1.5668678" />
    <circle
       style="display:inline;opacity:1;fill:none;fill-opacity:1;stroke:#000000;stroke-width:0.1;stroke-linecap:round;stroke-linejoin:miter;stroke-miterlimit:4;stroke-dasharray:none;stroke-dashoffset:0;stroke-opacity:1"
       id="path1494-36-5-4"
       cx="177.44331"
       cy="119.46336"
       r="1.5668679" />
    <circle
       style="display:inline;opacity:1;fill:none;fill-opacity:1;stroke:#000000;stroke-width:0.1;stroke-linecap:round;stroke-linejoin:miter;stroke-miterlimit:4;stroke-dasharray:none;stroke-dashoffset:0;stroke-opacity:1"
       id="path1494-36-54-3"
       cx="139.44331"
       cy="195.45844"
       r="1.5668679" />
    <circle
       style="display:inline;opacity:1;fill:none;fill-opacity:1;stroke:#000000;stroke-width:0.1;stroke-linecap:round;stroke-linejoin:miter;stroke-miterlimit:4;stroke-dasharray:none;stroke-dashoffset:0;stroke-opacity:1"
       id="path1494-36-4-1"
       cx="177.44331"
       cy="195.45842"
       r="1.5668679" />
  </g>
  <g
     inkscape:groupmode="layer"
     id="layer1"
     inkscape:label="info"
     style="display:inline"
     sodipodi:insensitive="true" />
</svg>
