<?xml version="1.0" encoding="UTF-8" standalone="no"?>
<!-- Created with Inkscape (http://www.inkscape.org/) -->

<svg
   xmlns:dc="http://purl.org/dc/elements/1.1/"
   xmlns:cc="http://creativecommons.org/ns#"
   xmlns:rdf="http://www.w3.org/1999/02/22-rdf-syntax-ns#"
   xmlns:svg="http://www.w3.org/2000/svg"
   xmlns="http://www.w3.org/2000/svg"
   xmlns:sodipodi="http://sodipodi.sourceforge.net/DTD/sodipodi-0.dtd"
   xmlns:inkscape="http://www.inkscape.org/namespaces/inkscape"
   width="210mm"
   height="297mm"
   viewBox="0 0 210 297"
   version="1.1"
   id="svg8"
   inkscape:version="0.92.4 (5da689c313, 2019-01-14)"
   sodipodi:docname="keyboard_lasercut_8_sides.svg">
  <defs
     id="defs2" />
  <sodipodi:namedview
     id="base"
     pagecolor="#ffffff"
     bordercolor="#666666"
     borderopacity="1.0"
     inkscape:pageopacity="0.0"
     inkscape:pageshadow="2"
     inkscape:zoom="0.70710678"
     inkscape:cx="293.23723"
     inkscape:cy="587.11772"
     inkscape:document-units="mm"
     inkscape:current-layer="g1341"
     showgrid="false"
     inkscape:window-width="1920"
     inkscape:window-height="1052"
     inkscape:window-x="0"
     inkscape:window-y="0"
     inkscape:window-maximized="1" />
  <metadata
     id="metadata5">
    <rdf:RDF>
      <cc:Work
         rdf:about="">
        <dc:format>image/svg+xml</dc:format>
        <dc:type
           rdf:resource="http://purl.org/dc/dcmitype/StillImage" />
        <dc:title />
      </cc:Work>
    </rdf:RDF>
  </metadata>
  <g
     id="g1341"
     inkscape:groupmode="layer"
     inkscape:label="Layer1"
     style="display:inline">
    <g
       id="g1737"
       transform="rotate(90,-4.2626255,-5.2099275)">
      <path
         style="fill:none;stroke:#000000;stroke-width:0.1;stroke-linecap:butt;stroke-linejoin:miter;stroke-miterlimit:4;stroke-dasharray:none;stroke-opacity:1"
         d="m 27.403951,-114.43651 h 0.782161 v 3.4979 h -0.782161 v 4.99658 h 0.782161 v 3.50083 0 h -0.782161 v 0.84321 h -13.68781 v -0.84321 H 12.93398 v -3.50083 h 0.782161 v -4.99658 H 12.93398 v -3.4979 h 0.782161 v -0.84906 h 13.68781 z"
         id="path1245"
         inkscape:connector-curvature="0"
         sodipodi:nodetypes="cccccccccccccccccccccc" />
      <path
         style="fill:none;stroke:#000000;stroke-width:0.1;stroke-linecap:butt;stroke-linejoin:miter;stroke-miterlimit:4;stroke-dasharray:none;stroke-opacity:1"
         d="m 46.703951,-114.43651 h 0.782161 v 3.4979 h -0.782161 v 4.99658 h 0.782161 v 3.50083 0 h -0.782161 v 0.84321 h -13.68781 v -0.84321 H 32.23398 v -3.50083 h 0.782161 v -4.99658 H 32.23398 v -3.4979 h 0.782161 v -0.84906 h 13.68781 z"
         id="path1245-3"
         inkscape:connector-curvature="0"
         sodipodi:nodetypes="cccccccccccccccccccccc" />
      <path
         style="fill:none;stroke:#000000;stroke-width:0.1;stroke-linecap:butt;stroke-linejoin:miter;stroke-miterlimit:4;stroke-dasharray:none;stroke-opacity:1"
         d="m 66.003952,-114.43651 h 0.782161 v 3.4979 h -0.782161 v 4.99658 h 0.782161 v 3.50083 0 h -0.782161 v 0.84321 h -13.68781 v -0.84321 h -0.782161 v -3.50083 h 0.782161 v -4.99658 h -0.782161 v -3.4979 h 0.782161 v -0.84906 h 13.68781 z"
         id="path1245-6"
         inkscape:connector-curvature="0"
         sodipodi:nodetypes="cccccccccccccccccccccc" />
      <path
         style="fill:none;stroke:#000000;stroke-width:0.1;stroke-linecap:butt;stroke-linejoin:miter;stroke-miterlimit:4;stroke-dasharray:none;stroke-opacity:1"
         d="m 85.303953,-114.43651 h 0.782161 v 3.4979 h -0.782161 v 4.99658 h 0.782161 v 3.50083 0 h -0.782161 v 0.84321 h -13.68781 v -0.84321 h -0.782161 v -3.50083 h 0.782161 v -4.99658 h -0.782161 v -3.4979 h 0.782161 v -0.84906 h 13.68781 z"
         id="path1245-7"
         inkscape:connector-curvature="0"
         sodipodi:nodetypes="cccccccccccccccccccccc" />
      <path
         style="fill:none;stroke:#000000;stroke-width:0.1;stroke-linecap:butt;stroke-linejoin:miter;stroke-miterlimit:4;stroke-dasharray:none;stroke-opacity:1"
         d="m 104.60395,-114.43651 h 0.78217 v 3.4979 h -0.78217 v 4.99658 h 0.78217 v 3.50083 0 h -0.78217 v 0.84321 H 90.916142 v -0.84321 h -0.782161 v -3.50083 h 0.782161 v -4.99658 h -0.782161 v -3.4979 h 0.782161 v -0.84906 h 13.687808 z"
         id="path1245-5"
         inkscape:connector-curvature="0"
         sodipodi:nodetypes="cccccccccccccccccccccc" />
      <path
         style="fill:none;stroke:#000000;stroke-width:0.1;stroke-linecap:butt;stroke-linejoin:miter;stroke-miterlimit:4;stroke-dasharray:none;stroke-opacity:1"
         d="m 123.90396,-114.43651 h 0.78216 v 3.4979 h -0.78216 v 4.99658 h 0.78216 v 3.50083 0 h -0.78216 v 0.84321 h -13.68781 v -0.84321 h -0.78216 v -3.50083 h 0.78216 v -4.99658 h -0.78216 v -3.4979 h 0.78216 v -0.84906 h 13.68781 z"
         id="path1245-35"
         inkscape:connector-curvature="0"
         sodipodi:nodetypes="cccccccccccccccccccccc" />
      <path
         style="fill:none;stroke:#000000;stroke-width:0.1;stroke-linecap:butt;stroke-linejoin:miter;stroke-miterlimit:4;stroke-dasharray:none;stroke-opacity:1"
         d="m 143.20395,-114.43651 h 0.78217 v 3.4979 h -0.78217 v 4.99658 h 0.78217 v 3.50083 0 h -0.78217 v 0.84321 h -13.68781 v -0.84321 h -0.78216 v -3.50083 h 0.78216 v -4.99658 h -0.78216 v -3.4979 h 0.78216 v -0.84906 h 13.68781 z"
         id="path1245-62"
         inkscape:connector-curvature="0"
         sodipodi:nodetypes="cccccccccccccccccccccc" />
      <path
         style="fill:none;stroke:#000000;stroke-width:0.1;stroke-linecap:butt;stroke-linejoin:miter;stroke-miterlimit:4;stroke-dasharray:none;stroke-opacity:1"
         d="m 162.50396,-114.43651 h 0.78216 v 3.4979 h -0.78216 v 4.99658 h 0.78216 v 3.50083 0 h -0.78216 v 0.84321 h -13.68781 v -0.84321 h -0.78216 v -3.50083 h 0.78216 v -4.99658 h -0.78216 v -3.4979 h 0.78216 v -0.84906 h 13.68781 z"
         id="path1245-9"
         inkscape:connector-curvature="0"
         sodipodi:nodetypes="cccccccccccccccccccccc" />
      <path
         style="fill:none;stroke:#000000;stroke-width:0.1;stroke-linecap:butt;stroke-linejoin:miter;stroke-miterlimit:4;stroke-dasharray:none;stroke-opacity:1"
         d="m 181.80396,-114.43651 h 0.78216 v 3.4979 h -0.78216 v 4.99658 h 0.78216 v 3.50083 0 h -0.78216 v 0.84321 h -13.68781 v -0.84321 h -0.78216 v -3.50083 h 0.78216 v -4.99658 h -0.78216 v -3.4979 h 0.78216 v -0.84906 h 13.68781 z"
         id="path1245-1"
         inkscape:connector-curvature="0"
         sodipodi:nodetypes="cccccccccccccccccccccc" />
      <path
         style="fill:none;stroke:#000000;stroke-width:0.1;stroke-linecap:butt;stroke-linejoin:miter;stroke-miterlimit:4;stroke-dasharray:none;stroke-opacity:1"
         d="m 201.10395,-114.43651 h 0.78216 v 3.4979 h -0.78216 v 4.99658 h 0.78216 v 3.50083 0 h -0.78216 v 0.84321 h -13.68781 v -0.84321 h -0.78216 v -3.50083 h 0.78216 v -4.99658 h -0.78216 v -3.4979 h 0.78216 v -0.84906 h 13.68781 z"
         id="path1245-2"
         inkscape:connector-curvature="0"
         sodipodi:nodetypes="cccccccccccccccccccccc" />
      <path
         style="fill:none;stroke:#000000;stroke-width:0.1;stroke-linecap:butt;stroke-linejoin:miter;stroke-miterlimit:4;stroke-dasharray:none;stroke-opacity:1"
         d="m 220.40395,-114.43651 h 0.78216 v 3.4979 h -0.78216 v 4.99658 h 0.78216 v 3.50083 0 h -0.78216 v 0.84321 h -13.68781 v -0.84321 h -0.78216 v -3.50083 h 0.78216 v -4.99658 h -0.78216 v -3.4979 h 0.78216 v -0.84906 h 13.68782 z"
         id="path1245-70"
         inkscape:connector-curvature="0"
         sodipodi:nodetypes="cccccccccccccccccccccc" />
      <path
         style="fill:none;stroke:#000000;stroke-width:0.1;stroke-linecap:butt;stroke-linejoin:miter;stroke-miterlimit:4;stroke-dasharray:none;stroke-opacity:1"
         d="m 239.70395,-114.43651 h 0.78216 v 3.4979 h -0.78216 v 4.99658 h 0.78216 v 3.50083 0 h -0.78216 v 0.84321 h -13.68781 v -0.84321 h -0.78216 v -3.50083 h 0.78216 v -4.99658 h -0.78216 v -3.4979 h 0.78216 v -0.84906 h 13.68781 z"
         id="path1245-93"
         inkscape:connector-curvature="0"
         sodipodi:nodetypes="cccccccccccccccccccccc" />
      <path
         style="opacity:0.97000002;fill:none;stroke:#000000;stroke-width:0.1;stroke-linecap:butt;stroke-linejoin:miter;stroke-miterlimit:4;stroke-dasharray:none;stroke-opacity:1"
         d="m 27.403954,-95.43651 h 0.782161 v 3.4979 h -0.782161 v 4.99658 h 0.782161 v 3.50083 0 h -0.782161 v 0.84321 h -13.68781 v -0.84321 h -0.782161 v -3.50083 h 0.782161 v -4.99658 h -0.782161 v -3.4979 h 0.782161 v -0.84906 h 13.68781 z"
         id="path1245-626"
         inkscape:connector-curvature="0"
         sodipodi:nodetypes="cccccccccccccccccccccc" />
      <path
         style="opacity:0.97000002;fill:none;stroke:#000000;stroke-width:0.1;stroke-linecap:butt;stroke-linejoin:miter;stroke-miterlimit:4;stroke-dasharray:none;stroke-opacity:1"
         d="m 46.703953,-95.43651 h 0.782162 v 3.4979 h -0.782162 v 4.99658 h 0.782162 v 3.50083 0 h -0.782162 v 0.84321 H 33.016144 v -0.84321 h -0.782161 v -3.50083 h 0.782161 v -4.99658 h -0.782161 v -3.4979 h 0.782161 v -0.84906 h 13.687809 z"
         id="path1245-3-1"
         inkscape:connector-curvature="0"
         sodipodi:nodetypes="cccccccccccccccccccccc" />
      <path
         style="opacity:0.97000002;fill:none;stroke:#000000;stroke-width:0.1;stroke-linecap:butt;stroke-linejoin:miter;stroke-miterlimit:4;stroke-dasharray:none;stroke-opacity:1"
         d="m 66.003955,-95.43651 h 0.782162 v 3.4979 h -0.782162 v 4.99658 h 0.782162 v 3.50083 0 h -0.782162 v 0.84321 H 52.316144 v -0.84321 h -0.782158 v -3.50083 h 0.782158 v -4.99658 h -0.782158 v -3.4979 h 0.782158 v -0.84906 h 13.687811 z"
         id="path1245-6-8"
         inkscape:connector-curvature="0"
         sodipodi:nodetypes="cccccccccccccccccccccc" />
      <path
         style="opacity:0.97000002;fill:none;stroke:#000000;stroke-width:0.1;stroke-linecap:butt;stroke-linejoin:miter;stroke-miterlimit:4;stroke-dasharray:none;stroke-opacity:1"
         d="m 85.303958,-95.43651 h 0.782161 v 3.4979 h -0.782161 v 4.99658 h 0.782161 v 3.50083 0 h -0.782161 v 0.84321 H 71.616146 v -0.84321 h -0.782161 v -3.50083 h 0.782161 v -4.99658 h -0.782161 v -3.4979 h 0.782161 v -0.84906 h 13.687812 z"
         id="path1245-7-7"
         inkscape:connector-curvature="0"
         sodipodi:nodetypes="cccccccccccccccccccccc" />
      <path
         style="opacity:0.97000002;fill:none;stroke:#000000;stroke-width:0.1;stroke-linecap:butt;stroke-linejoin:miter;stroke-miterlimit:4;stroke-dasharray:none;stroke-opacity:1"
         d="m 104.60395,-95.43651 h 0.78217 v 3.4979 h -0.78217 v 4.99658 h 0.78217 v 3.50083 0 h -0.78217 v 0.84321 H 90.916146 v -0.84321 h -0.782161 v -3.50083 h 0.782161 v -4.99658 h -0.782161 v -3.4979 h 0.782161 v -0.84906 h 13.687804 z"
         id="path1245-5-9"
         inkscape:connector-curvature="0"
         sodipodi:nodetypes="cccccccccccccccccccccc" />
      <path
         style="opacity:0.97000002;fill:none;stroke:#000000;stroke-width:0.1;stroke-linecap:butt;stroke-linejoin:miter;stroke-miterlimit:4;stroke-dasharray:none;stroke-opacity:1"
         d="m 123.90396,-95.43651 h 0.78216 v 3.4979 h -0.78216 v 4.99658 h 0.78216 v 3.50083 0 h -0.78216 v 0.84321 h -13.68781 v -0.84321 h -0.78216 v -3.50083 h 0.78216 v -4.99658 h -0.78216 v -3.4979 h 0.78216 v -0.84906 h 13.68781 z"
         id="path1245-35-2"
         inkscape:connector-curvature="0"
         sodipodi:nodetypes="cccccccccccccccccccccc" />
      <path
         style="opacity:0.97000002;fill:none;stroke:#000000;stroke-width:0.1;stroke-linecap:butt;stroke-linejoin:miter;stroke-miterlimit:4;stroke-dasharray:none;stroke-opacity:1"
         d="m 143.20395,-95.43651 h 0.78217 v 3.4979 h -0.78217 v 4.99658 h 0.78217 v 3.50083 0 h -0.78217 v 0.84321 h -13.68781 v -0.84321 h -0.78216 v -3.50083 h 0.78216 v -4.99658 h -0.78216 v -3.4979 h 0.78216 v -0.84906 h 13.68781 z"
         id="path1245-62-0"
         inkscape:connector-curvature="0"
         sodipodi:nodetypes="cccccccccccccccccccccc" />
      <path
         style="opacity:0.97000002;fill:none;stroke:#000000;stroke-width:0.1;stroke-linecap:butt;stroke-linejoin:miter;stroke-miterlimit:4;stroke-dasharray:none;stroke-opacity:1"
         d="m 162.50396,-95.43651 h 0.78216 v 3.4979 h -0.78216 v 4.99658 h 0.78216 v 3.50083 0 h -0.78216 v 0.84321 h -13.68781 v -0.84321 h -0.78216 v -3.50083 h 0.78216 v -4.99658 h -0.78216 v -3.4979 h 0.78216 v -0.84906 h 13.68781 z"
         id="path1245-9-2"
         inkscape:connector-curvature="0"
         sodipodi:nodetypes="cccccccccccccccccccccc" />
      <path
         style="opacity:0.97000002;fill:none;stroke:#000000;stroke-width:0.1;stroke-linecap:butt;stroke-linejoin:miter;stroke-miterlimit:4;stroke-dasharray:none;stroke-opacity:1"
         d="m 181.80396,-95.43651 h 0.78216 v 3.4979 h -0.78216 v 4.99658 h 0.78216 v 3.50083 0 h -0.78216 v 0.84321 h -13.68781 v -0.84321 h -0.78216 v -3.50083 h 0.78216 v -4.99658 h -0.78216 v -3.4979 h 0.78216 v -0.84906 h 13.68781 z"
         id="path1245-1-3"
         inkscape:connector-curvature="0"
         sodipodi:nodetypes="cccccccccccccccccccccc" />
      <path
         style="opacity:0.97000002;fill:none;stroke:#000000;stroke-width:0.1;stroke-linecap:butt;stroke-linejoin:miter;stroke-miterlimit:4;stroke-dasharray:none;stroke-opacity:1"
         d="m 201.10395,-95.43651 h 0.78216 v 3.4979 h -0.78216 v 4.99658 h 0.78216 v 3.50083 0 h -0.78216 v 0.84321 h -13.68781 v -0.84321 h -0.78216 v -3.50083 h 0.78216 v -4.99658 h -0.78216 v -3.4979 h 0.78216 v -0.84906 h 13.68781 z"
         id="path1245-2-7"
         inkscape:connector-curvature="0"
         sodipodi:nodetypes="cccccccccccccccccccccc" />
      <path
         style="opacity:0.97000002;fill:none;stroke:#000000;stroke-width:0.1;stroke-linecap:butt;stroke-linejoin:miter;stroke-miterlimit:4;stroke-dasharray:none;stroke-opacity:1"
         d="m 220.40395,-95.43651 h 0.78216 v 3.4979 h -0.78216 v 4.99658 h 0.78216 v 3.50083 0 h -0.78216 v 0.84321 h -13.68781 v -0.84321 h -0.78216 v -3.50083 h 0.78216 v -4.99658 h -0.78216 v -3.4979 h 0.78216 v -0.84906 h 13.68782 z"
         id="path1245-70-5"
         inkscape:connector-curvature="0"
         sodipodi:nodetypes="cccccccccccccccccccccc" />
      <path
         style="opacity:0.97000002;fill:none;stroke:#000000;stroke-width:0.1;stroke-linecap:butt;stroke-linejoin:miter;stroke-miterlimit:4;stroke-dasharray:none;stroke-opacity:1"
         d="m 239.70395,-95.43651 h 0.78216 v 3.4979 h -0.78216 v 4.99658 h 0.78216 v 3.50083 0 h -0.78216 v 0.84321 h -13.68781 v -0.84321 h -0.78216 v -3.50083 h 0.78216 v -4.99658 h -0.78216 v -3.4979 h 0.78216 v -0.84906 h 13.68781 z"
         id="path1245-93-9"
         inkscape:connector-curvature="0"
         sodipodi:nodetypes="cccccccccccccccccccccc" />
      <path
         style="fill:none;stroke:#000000;stroke-width:0.1;stroke-linecap:butt;stroke-linejoin:miter;stroke-miterlimit:4;stroke-dasharray:none;stroke-opacity:1"
         d="m 27.403958,-76.436508 h 0.782161 v 3.4979 h -0.782161 v 4.99658 h 0.782161 v 3.50083 0 h -0.782161 v 0.84321 h -13.68781 v -0.84321 h -0.782161 v -3.50083 h 0.782161 v -4.99658 h -0.782161 v -3.4979 h 0.782161 v -0.84906 h 13.68781 z"
         id="path1245-22"
         inkscape:connector-curvature="0"
         sodipodi:nodetypes="cccccccccccccccccccccc" />
      <path
         style="fill:none;stroke:#000000;stroke-width:0.1;stroke-linecap:butt;stroke-linejoin:miter;stroke-miterlimit:4;stroke-dasharray:none;stroke-opacity:1"
         d="m 46.703957,-76.436508 h 0.782162 v 3.4979 h -0.782162 v 4.99658 h 0.782162 v 3.50083 0 h -0.782162 v 0.84321 H 33.016148 v -0.84321 h -0.782161 v -3.50083 h 0.782161 v -4.99658 h -0.782161 v -3.4979 h 0.782161 v -0.84906 h 13.687809 z"
         id="path1245-3-8"
         inkscape:connector-curvature="0"
         sodipodi:nodetypes="cccccccccccccccccccccc" />
      <path
         style="fill:none;stroke:#000000;stroke-width:0.1;stroke-linecap:butt;stroke-linejoin:miter;stroke-miterlimit:4;stroke-dasharray:none;stroke-opacity:1"
         d="m 66.003959,-76.436508 h 0.782162 v 3.4979 h -0.782162 v 4.99658 h 0.782162 v 3.50083 0 h -0.782162 v 0.84321 H 52.316148 v -0.84321 H 51.53399 v -3.50083 h 0.782158 v -4.99658 H 51.53399 v -3.4979 h 0.782158 v -0.84906 h 13.687811 z"
         id="path1245-6-9"
         inkscape:connector-curvature="0"
         sodipodi:nodetypes="cccccccccccccccccccccc" />
      <path
         style="fill:none;stroke:#000000;stroke-width:0.1;stroke-linecap:butt;stroke-linejoin:miter;stroke-miterlimit:4;stroke-dasharray:none;stroke-opacity:1"
         d="m 85.303962,-76.436508 h 0.782161 v 3.4979 h -0.782161 v 4.99658 h 0.782161 v 3.50083 0 h -0.782161 v 0.84321 H 71.61615 v -0.84321 h -0.782161 v -3.50083 h 0.782161 v -4.99658 h -0.782161 v -3.4979 h 0.782161 v -0.84906 h 13.687812 z"
         id="path1245-7-73"
         inkscape:connector-curvature="0"
         sodipodi:nodetypes="cccccccccccccccccccccc" />
      <path
         style="fill:none;stroke:#000000;stroke-width:0.1;stroke-linecap:butt;stroke-linejoin:miter;stroke-miterlimit:4;stroke-dasharray:none;stroke-opacity:1"
         d="m 104.60396,-76.436508 h 0.78217 v 3.4979 h -0.78217 v 4.99658 h 0.78217 v 3.50083 0 h -0.78217 v 0.84321 H 90.91615 v -0.84321 h -0.782161 v -3.50083 h 0.782161 v -4.99658 h -0.782161 v -3.4979 h 0.782161 v -0.84906 h 13.68781 z"
         id="path1245-5-6"
         inkscape:connector-curvature="0"
         sodipodi:nodetypes="cccccccccccccccccccccc" />
      <path
         style="fill:none;stroke:#000000;stroke-width:0.1;stroke-linecap:butt;stroke-linejoin:miter;stroke-miterlimit:4;stroke-dasharray:none;stroke-opacity:1"
         d="m 123.90397,-76.436508 h 0.78216 v 3.4979 h -0.78216 v 4.99658 h 0.78216 v 3.50083 0 h -0.78216 v 0.84321 h -13.68781 v -0.84321 H 109.434 v -3.50083 h 0.78216 v -4.99658 H 109.434 v -3.4979 h 0.78216 v -0.84906 h 13.68781 z"
         id="path1245-35-1"
         inkscape:connector-curvature="0"
         sodipodi:nodetypes="cccccccccccccccccccccc" />
      <path
         style="fill:none;stroke:#000000;stroke-width:0.1;stroke-linecap:butt;stroke-linejoin:miter;stroke-miterlimit:4;stroke-dasharray:none;stroke-opacity:1"
         d="m 143.20396,-76.436508 h 0.78217 v 3.4979 h -0.78217 v 4.99658 h 0.78217 v 3.50083 0 h -0.78217 v 0.84321 h -13.68781 v -0.84321 h -0.78216 v -3.50083 h 0.78216 v -4.99658 h -0.78216 v -3.4979 h 0.78216 v -0.84906 h 13.68781 z"
         id="path1245-62-2"
         inkscape:connector-curvature="0"
         sodipodi:nodetypes="cccccccccccccccccccccc" />
      <path
         style="fill:none;stroke:#000000;stroke-width:0.1;stroke-linecap:butt;stroke-linejoin:miter;stroke-miterlimit:4;stroke-dasharray:none;stroke-opacity:1"
         d="m 162.50397,-76.436508 h 0.78216 v 3.4979 h -0.78216 v 4.99658 h 0.78216 v 3.50083 0 h -0.78216 v 0.84321 h -13.68781 v -0.84321 H 148.034 v -3.50083 h 0.78216 v -4.99658 H 148.034 v -3.4979 h 0.78216 v -0.84906 h 13.68781 z"
         id="path1245-9-9"
         inkscape:connector-curvature="0"
         sodipodi:nodetypes="cccccccccccccccccccccc" />
      <path
         style="fill:none;stroke:#000000;stroke-width:0.1;stroke-linecap:butt;stroke-linejoin:miter;stroke-miterlimit:4;stroke-dasharray:none;stroke-opacity:1"
         d="m 181.80397,-76.436508 h 0.78216 v 3.4979 h -0.78216 v 4.99658 h 0.78216 v 3.50083 0 h -0.78216 v 0.84321 h -13.68781 v -0.84321 H 167.334 v -3.50083 h 0.78216 v -4.99658 H 167.334 v -3.4979 h 0.78216 v -0.84906 h 13.68781 z"
         id="path1245-1-31"
         inkscape:connector-curvature="0"
         sodipodi:nodetypes="cccccccccccccccccccccc" />
      <path
         style="fill:none;stroke:#000000;stroke-width:0.1;stroke-linecap:butt;stroke-linejoin:miter;stroke-miterlimit:4;stroke-dasharray:none;stroke-opacity:1"
         d="m 201.10396,-76.436508 h 0.78216 v 3.4979 h -0.78216 v 4.99658 h 0.78216 v 3.50083 0 h -0.78216 v 0.84321 h -13.68781 v -0.84321 h -0.78216 v -3.50083 h 0.78216 v -4.99658 h -0.78216 v -3.4979 h 0.78216 v -0.84906 h 13.68781 z"
         id="path1245-2-9"
         inkscape:connector-curvature="0"
         sodipodi:nodetypes="cccccccccccccccccccccc" />
      <path
         style="fill:none;stroke:#000000;stroke-width:0.1;stroke-linecap:butt;stroke-linejoin:miter;stroke-miterlimit:4;stroke-dasharray:none;stroke-opacity:1"
         d="m 220.40396,-76.436508 h 0.78216 v 3.4979 h -0.78216 v 4.99658 h 0.78216 v 3.50083 0 h -0.78216 v 0.84321 h -13.68781 v -0.84321 h -0.78216 v -3.50083 h 0.78216 v -4.99658 h -0.78216 v -3.4979 h 0.78216 v -0.84906 h 13.68782 z"
         id="path1245-70-4"
         inkscape:connector-curvature="0"
         sodipodi:nodetypes="cccccccccccccccccccccc" />
      <path
         style="fill:none;stroke:#000000;stroke-width:0.1;stroke-linecap:butt;stroke-linejoin:miter;stroke-miterlimit:4;stroke-dasharray:none;stroke-opacity:1"
         d="m 239.70396,-76.436508 h 0.78216 v 3.4979 h -0.78216 v 4.99658 h 0.78216 v 3.50083 0 h -0.78216 v 0.84321 h -13.68781 v -0.84321 h -0.78216 v -3.50083 h 0.78216 v -4.99658 h -0.78216 v -3.4979 h 0.78216 v -0.84906 h 13.68781 z"
         id="path1245-93-7"
         inkscape:connector-curvature="0"
         sodipodi:nodetypes="cccccccccccccccccccccc" />
      <path
         style="opacity:0.97000002;fill:none;stroke:#000000;stroke-width:0.1;stroke-linecap:butt;stroke-linejoin:miter;stroke-miterlimit:4;stroke-dasharray:none;stroke-opacity:1"
         d="m 27.403961,-57.436512 h 0.782161 v 3.4979 h -0.782161 v 4.99658 h 0.782161 v 3.50083 0 h -0.782161 v 0.84321 h -13.68781 v -0.84321 H 12.93399 v -3.50083 h 0.782161 v -4.99658 H 12.93399 v -3.4979 h 0.782161 v -0.84906 h 13.68781 z"
         id="path1245-626-4"
         inkscape:connector-curvature="0"
         sodipodi:nodetypes="cccccccccccccccccccccc" />
      <path
         style="opacity:0.97000002;fill:none;stroke:#000000;stroke-width:0.1;stroke-linecap:butt;stroke-linejoin:miter;stroke-miterlimit:4;stroke-dasharray:none;stroke-opacity:1"
         d="m 46.70396,-57.436512 h 0.782162 v 3.4979 H 46.70396 v 4.99658 h 0.782162 v 3.50083 0 H 46.70396 v 0.84321 H 33.016151 v -0.84321 H 32.23399 v -3.50083 h 0.782161 v -4.99658 H 32.23399 v -3.4979 h 0.782161 v -0.84906 H 46.70396 Z"
         id="path1245-3-1-5"
         inkscape:connector-curvature="0"
         sodipodi:nodetypes="cccccccccccccccccccccc" />
      <path
         style="opacity:0.97000002;fill:none;stroke:#000000;stroke-width:0.1;stroke-linecap:butt;stroke-linejoin:miter;stroke-miterlimit:4;stroke-dasharray:none;stroke-opacity:1"
         d="m 66.003962,-57.436512 h 0.782162 v 3.4979 h -0.782162 v 4.99658 h 0.782162 v 3.50083 0 h -0.782162 v 0.84321 H 52.316151 v -0.84321 h -0.782158 v -3.50083 h 0.782158 v -4.99658 h -0.782158 v -3.4979 h 0.782158 v -0.84906 h 13.687811 z"
         id="path1245-6-8-0"
         inkscape:connector-curvature="0"
         sodipodi:nodetypes="cccccccccccccccccccccc" />
      <path
         style="opacity:0.97000002;fill:none;stroke:#000000;stroke-width:0.1;stroke-linecap:butt;stroke-linejoin:miter;stroke-miterlimit:4;stroke-dasharray:none;stroke-opacity:1"
         d="m 85.303965,-57.436512 h 0.782161 v 3.4979 h -0.782161 v 4.99658 h 0.782161 v 3.50083 0 h -0.782161 v 0.84321 H 71.616153 v -0.84321 h -0.782161 v -3.50083 h 0.782161 v -4.99658 h -0.782161 v -3.4979 h 0.782161 v -0.84906 h 13.687812 z"
         id="path1245-7-7-3"
         inkscape:connector-curvature="0"
         sodipodi:nodetypes="cccccccccccccccccccccc" />
      <path
         style="opacity:0.97000002;fill:none;stroke:#000000;stroke-width:0.1;stroke-linecap:butt;stroke-linejoin:miter;stroke-miterlimit:4;stroke-dasharray:none;stroke-opacity:1"
         d="m 104.60396,-57.436512 h 0.78217 v 3.4979 h -0.78217 v 4.99658 h 0.78217 v 3.50083 0 h -0.78217 v 0.84321 H 90.916153 v -0.84321 h -0.782161 v -3.50083 h 0.782161 v -4.99658 h -0.782161 v -3.4979 h 0.782161 v -0.84906 h 13.687807 z"
         id="path1245-5-9-6"
         inkscape:connector-curvature="0"
         sodipodi:nodetypes="cccccccccccccccccccccc" />
      <path
         style="opacity:0.97000002;fill:none;stroke:#000000;stroke-width:0.1;stroke-linecap:butt;stroke-linejoin:miter;stroke-miterlimit:4;stroke-dasharray:none;stroke-opacity:1"
         d="m 123.90397,-57.436512 h 0.78216 v 3.4979 h -0.78216 v 4.99658 h 0.78216 v 3.50083 0 h -0.78216 v 0.84321 h -13.68781 v -0.84321 H 109.434 v -3.50083 h 0.78216 v -4.99658 H 109.434 v -3.4979 h 0.78216 v -0.84906 h 13.68781 z"
         id="path1245-35-2-1"
         inkscape:connector-curvature="0"
         sodipodi:nodetypes="cccccccccccccccccccccc" />
      <path
         style="opacity:0.97000002;fill:none;stroke:#000000;stroke-width:0.1;stroke-linecap:butt;stroke-linejoin:miter;stroke-miterlimit:4;stroke-dasharray:none;stroke-opacity:1"
         d="m 143.20396,-57.436512 h 0.78217 v 3.4979 h -0.78217 v 4.99658 h 0.78217 v 3.50083 0 h -0.78217 v 0.84321 h -13.68781 v -0.84321 h -0.78216 v -3.50083 h 0.78216 v -4.99658 h -0.78216 v -3.4979 h 0.78216 v -0.84906 h 13.68781 z"
         id="path1245-62-0-0"
         inkscape:connector-curvature="0"
         sodipodi:nodetypes="cccccccccccccccccccccc" />
      <path
         style="opacity:0.97000002;fill:none;stroke:#000000;stroke-width:0.1;stroke-linecap:butt;stroke-linejoin:miter;stroke-miterlimit:4;stroke-dasharray:none;stroke-opacity:1"
         d="m 162.50397,-57.436512 h 0.78216 v 3.4979 h -0.78216 v 4.99658 h 0.78216 v 3.50083 0 h -0.78216 v 0.84321 h -13.68781 v -0.84321 H 148.034 v -3.50083 h 0.78216 v -4.99658 H 148.034 v -3.4979 h 0.78216 v -0.84906 h 13.68781 z"
         id="path1245-9-2-6"
         inkscape:connector-curvature="0"
         sodipodi:nodetypes="cccccccccccccccccccccc" />
      <path
         style="opacity:0.97000002;fill:none;stroke:#000000;stroke-width:0.1;stroke-linecap:butt;stroke-linejoin:miter;stroke-miterlimit:4;stroke-dasharray:none;stroke-opacity:1"
         d="m 181.80397,-57.436512 h 0.78216 v 3.4979 h -0.78216 v 4.99658 h 0.78216 v 3.50083 0 h -0.78216 v 0.84321 h -13.68781 v -0.84321 H 167.334 v -3.50083 h 0.78216 v -4.99658 H 167.334 v -3.4979 h 0.78216 v -0.84906 h 13.68781 z"
         id="path1245-1-3-3"
         inkscape:connector-curvature="0"
         sodipodi:nodetypes="cccccccccccccccccccccc" />
      <path
         style="opacity:0.97000002;fill:none;stroke:#000000;stroke-width:0.1;stroke-linecap:butt;stroke-linejoin:miter;stroke-miterlimit:4;stroke-dasharray:none;stroke-opacity:1"
         d="m 201.10396,-57.436512 h 0.78216 v 3.4979 h -0.78216 v 4.99658 h 0.78216 v 3.50083 0 h -0.78216 v 0.84321 h -13.68781 v -0.84321 h -0.78216 v -3.50083 h 0.78216 v -4.99658 h -0.78216 v -3.4979 h 0.78216 v -0.84906 h 13.68781 z"
         id="path1245-2-7-2"
         inkscape:connector-curvature="0"
         sodipodi:nodetypes="cccccccccccccccccccccc" />
      <path
         style="opacity:0.97000002;fill:none;stroke:#000000;stroke-width:0.1;stroke-linecap:butt;stroke-linejoin:miter;stroke-miterlimit:4;stroke-dasharray:none;stroke-opacity:1"
         d="m 220.40396,-57.436512 h 0.78216 v 3.4979 h -0.78216 v 4.99658 h 0.78216 v 3.50083 0 h -0.78216 v 0.84321 h -13.68781 v -0.84321 h -0.78216 v -3.50083 h 0.78216 v -4.99658 h -0.78216 v -3.4979 h 0.78216 v -0.84906 h 13.68782 z"
         id="path1245-70-5-0"
         inkscape:connector-curvature="0"
         sodipodi:nodetypes="cccccccccccccccccccccc" />
      <path
         style="opacity:0.97000002;fill:none;stroke:#000000;stroke-width:0.1;stroke-linecap:butt;stroke-linejoin:miter;stroke-miterlimit:4;stroke-dasharray:none;stroke-opacity:1"
         d="m 239.70396,-57.436512 h 0.78216 v 3.4979 h -0.78216 v 4.99658 h 0.78216 v 3.50083 0 h -0.78216 v 0.84321 h -13.68781 v -0.84321 h -0.78216 v -3.50083 h 0.78216 v -4.99658 h -0.78216 v -3.4979 h 0.78216 v -0.84906 h 13.68781 z"
         id="path1245-93-9-6"
         inkscape:connector-curvature="0"
         sodipodi:nodetypes="cccccccccccccccccccccc" />
    </g>
    <path
       style="fill:none;stroke:#000000;stroke-width:0.26458332px;stroke-linecap:butt;stroke-linejoin:miter;stroke-opacity:1"
       d="m 31.653063,12.723426 4.263972,-4.2340271 v -2.838282 h 69.091305 l -2e-4,2.838282 4.26397,4.2340271 h 2.81152 l 0.003,226.072774 h -2.81143 l -4.26397,4.23403 2e-4,2.83828 H 35.920225 v -2.83828 L 31.656253,238.7962 H 28.84474 L 28.84154,12.723426 Z"
       id="path1077"
       inkscape:connector-curvature="0"
       sodipodi:nodetypes="ccccccccccccccccc" />
    <path
       style="fill:none;stroke:#000000;stroke-width:0.26458332px;stroke-linecap:butt;stroke-linejoin:miter;stroke-opacity:1"
       d="m 16.806903,105.73998 7.07529,-7.072314 -7.07529,-7.07231 -7.0753003,7.07231 z"
       id="path1113"
       inkscape:connector-curvature="0"
       sodipodi:nodetypes="ccccc" />
    <text
       xml:space="preserve"
       style="font-style:normal;font-weight:normal;font-size:10.58333302px;line-height:1.25;font-family:sans-serif;letter-spacing:0px;word-spacing:0px;fill:#000000;fill-opacity:1;stroke:none;stroke-width:0.26458332"
       x="11.511634"
       y="115.52148"
       id="text1181"><tspan
         sodipodi:role="line"
         id="tspan1179"
         x="11.511634"
         y="115.52148"
         style="stroke-width:0.26458332">x4</tspan></text>
    <path
       style="display:inline;fill:none;stroke:#000000;stroke-width:0.26458332px;stroke-linecap:butt;stroke-linejoin:miter;stroke-opacity:1"
       d="m 122.08524,12.309755 4.26397,-4.2340267 v -2.838282 h 69.0913 l -2e-4,2.838282 4.26397,4.2340267 h 2.81152 l 0.003,226.072775 h -2.81144 l -4.26397,4.23402 2e-4,2.83829 H 126.3524 v -2.83829 l -4.26397,-4.23402 h -2.81152 l -0.003,-226.072775 z"
       id="path1077-3"
       inkscape:connector-curvature="0"
       sodipodi:nodetypes="ccccccccccccccccc" />
    <path
       style="display:inline;fill:none;stroke:#000000;stroke-width:0.26458332px;stroke-linecap:butt;stroke-linejoin:miter;stroke-opacity:1"
       d="M 17.97513,69.2205 V 12.723426 h 6.002105 V 69.2205 Z"
       id="path1198-0"
       inkscape:connector-curvature="0"
       sodipodi:nodetypes="ccccc" />
    <text
       xml:space="preserve"
       style="font-style:normal;font-weight:normal;font-size:10.58333302px;line-height:1.25;font-family:sans-serif;letter-spacing:0px;word-spacing:0px;fill:#000000;fill-opacity:1;stroke:none;stroke-width:0.26458332"
       x="3.7417734"
       y="43.307762"
       id="text1261"><tspan
         sodipodi:role="line"
         id="tspan1259"
         x="3.7417734"
         y="43.307762"
         style="stroke-width:0.26458332">x8</tspan></text>
    <path
       style="display:inline;fill:none;stroke:#000000;stroke-width:0.26458332px;stroke-linecap:butt;stroke-linejoin:miter;stroke-opacity:1"
       d="m 105.03618,262.77709 v -6.00096 H 35.944982 v 6.00096 z"
       id="path1263-8"
       inkscape:connector-curvature="0"
       sodipodi:nodetypes="ccccc" />
    <text
       xml:space="preserve"
       style="font-style:normal;font-weight:normal;font-size:10.58333302px;line-height:1.25;font-family:sans-serif;letter-spacing:0px;word-spacing:0px;fill:#000000;fill-opacity:1;stroke:none;stroke-width:0.26458332"
       x="-66.693741"
       y="75.025505"
       id="text1286"
       transform="rotate(-45)"><tspan
         sodipodi:role="line"
         id="tspan1284"
         x="-66.693741"
         y="75.025505"
         style="font-size:4.93888903px;stroke-width:0.26458332">10mm</tspan></text>
    <text
       xml:space="preserve"
       style="font-style:normal;font-weight:normal;font-size:10.58333302px;line-height:1.25;font-family:sans-serif;letter-spacing:0px;word-spacing:0px;display:inline;fill:#000000;fill-opacity:1;stroke:none;stroke-width:0.26458332"
       x="3.2138081"
       y="8.5848227"
       id="text1286-7"><tspan
         sodipodi:role="line"
         id="tspan1284-9"
         x="3.2138081"
         y="8.5848227"
         style="font-size:4.93888903px;stroke-width:0.26458332">10-2*2mm</tspan></text>
    <text
       xml:space="preserve"
       style="font-style:normal;font-weight:normal;font-size:10.58333302px;line-height:1.25;font-family:sans-serif;letter-spacing:0px;word-spacing:0px;display:inline;fill:#000000;fill-opacity:1;stroke:none;stroke-width:0.26458332"
       x="66.671387"
       y="273.34097"
       id="text1181-2"><tspan
         sodipodi:role="line"
         id="tspan1179-0"
         x="66.671387"
         y="273.34097"
         style="stroke-width:0.26458332">x2</tspan></text>
    <text
       xml:space="preserve"
       style="font-style:normal;font-weight:normal;font-size:10.58333302px;line-height:1.25;font-family:sans-serif;letter-spacing:0px;word-spacing:0px;fill:#000000;fill-opacity:1;stroke:none;stroke-width:0.26458332"
       x="10.102787"
       y="310.09619"
       id="text1326"><tspan
         sodipodi:role="line"
         id="tspan1324"
         x="10.102787"
         y="310.09619"
         style="stroke-width:0.26458332">if total thickness is 10mm,</tspan><tspan
         sodipodi:role="line"
         x="10.102787"
         y="323.32535"
         style="stroke-width:0.26458332"
         id="tspan1328">the plates are 2mm thick each,</tspan><tspan
         sodipodi:role="line"
         x="10.102787"
         y="336.55453"
         style="stroke-width:0.26458332"
         id="tspan1330">there are 6mm left for insides</tspan></text>
  </g>
</svg>
