<?xml version="1.0" encoding="UTF-8" standalone="no"?>
<!-- Created with Inkscape (http://www.inkscape.org/) -->

<svg
   xmlns:dc="http://purl.org/dc/elements/1.1/"
   xmlns:cc="http://creativecommons.org/ns#"
   xmlns:rdf="http://www.w3.org/1999/02/22-rdf-syntax-ns#"
   xmlns:svg="http://www.w3.org/2000/svg"
   xmlns="http://www.w3.org/2000/svg"
   xmlns:sodipodi="http://sodipodi.sourceforge.net/DTD/sodipodi-0.dtd"
   xmlns:inkscape="http://www.inkscape.org/namespaces/inkscape"
   width="466.24338mm"
   height="340.27969mm"
   viewBox="0 0 466.24337 340.2797"
   version="1.1"
   id="svg8"
   inkscape:version="0.92.5 (2060ec1f9f, 2020-04-08)"
   sodipodi:docname="laptop-stand-hex.svg">
  <defs
     id="defs2" />
  <sodipodi:namedview
     id="base"
     pagecolor="#ffffff"
     bordercolor="#666666"
     borderopacity="1.0"
     inkscape:pageopacity="0.0"
     inkscape:pageshadow="2"
     inkscape:zoom="0.5"
     inkscape:cx="694.20145"
     inkscape:cy="692.02203"
     inkscape:document-units="mm"
     inkscape:current-layer="layer2"
     showgrid="false"
     inkscape:window-width="1920"
     inkscape:window-height="1016"
     inkscape:window-x="0"
     inkscape:window-y="27"
     inkscape:window-maximized="1"
     fit-margin-top="0"
     fit-margin-left="0"
     fit-margin-right="0"
     fit-margin-bottom="0" />
  <metadata
     id="metadata5">
    <rdf:RDF>
      <cc:Work
         rdf:about="">
        <dc:format>image/svg+xml</dc:format>
        <dc:type
           rdf:resource="http://purl.org/dc/dcmitype/StillImage" />
        <dc:title />
      </cc:Work>
    </rdf:RDF>
  </metadata>
  <g
     inkscape:groupmode="layer"
     id="layer2"
     inkscape:label="new"
     style="opacity:1"
     transform="translate(3.8722,75.915913)">
    <path
       style="opacity:1;fill:none;stroke:#000000;stroke-width:0.10001715;stroke-miterlimit:4;stroke-dasharray:none;stroke-opacity:1"
       d="m 28.955098,200.32363 v -79.4727 h 79.499982 v 79.4727 z"
       id="rect4593"
       inkscape:connector-curvature="0" />
    <path
       style="opacity:1;fill:none;stroke:#000000;stroke-width:0.1;stroke-linecap:butt;stroke-linejoin:miter;stroke-miterlimit:4;stroke-dasharray:none;stroke-opacity:1"
       d="M 95.486384,232.25749 H 41.951068 l -12.96453,-12.96453 12.96453,-12.96453 h 53.535326 l 12.964516,12.96453 z"
       id="path4591-3"
       inkscape:connector-curvature="0"
       sodipodi:nodetypes="ccccccc" />
    <path
       style="opacity:1;fill:none;stroke:#000000;stroke-width:0.10001715;stroke-miterlimit:4;stroke-dasharray:none;stroke-opacity:1"
       d="m 28.955098,-12.934637 v 79.4727 h 79.499982 v -79.4727 z"
       id="rect4593-2"
       inkscape:connector-curvature="0" />
    <path
       style="opacity:1;fill:none;stroke:#000000;stroke-width:0.1;stroke-linecap:butt;stroke-linejoin:miter;stroke-miterlimit:4;stroke-dasharray:none;stroke-opacity:1"
       d="M 95.486394,-44.868539 H 41.951068 l -12.96453,12.964531 12.96453,12.96453 53.535337,1.9e-5 12.964505,-12.964549 z"
       id="path4591-3-7"
       inkscape:connector-curvature="0"
       sodipodi:nodetypes="ccccccc" />
    <path
       style="opacity:1;fill:none;stroke:#000000;stroke-width:0.1;stroke-linecap:butt;stroke-linejoin:miter;stroke-miterlimit:4;stroke-dasharray:none;stroke-opacity:1"
       d="m 28.986538,101.88158 1.1e-5,-16.374178 12.964527,-12.964531 53.535329,-1.8e-5 12.964505,12.964549 V 101.88158 L 95.486384,114.84611 H 41.951068 Z"
       id="path4591-0"
       inkscape:connector-curvature="0"
       sodipodi:nodetypes="ccccccccc" />
    <path
       style="opacity:1;fill:none;stroke:#000000;stroke-width:0.1;stroke-miterlimit:4;stroke-dasharray:none;stroke-opacity:1"
       d="m 125.41094,250.99295 v -6.41492 h 41.88094 v 6.41492 z"
       id="rect5006-2-3"
       inkscape:connector-curvature="0"
       sodipodi:nodetypes="ccccc" />
    <path
       style="opacity:1;fill:none;stroke:#000000;stroke-width:0.1;stroke-miterlimit:4;stroke-dasharray:none;stroke-opacity:1"
       d="m 33.445828,250.99295 v -6.41492 h 41.880933 l -3e-6,6.41492 z"
       id="rect5006-2-2-1"
       inkscape:connector-curvature="0"
       sodipodi:nodetypes="ccccc" />
    <path
       style="opacity:1;fill:none;stroke:#000000;stroke-width:0.1;stroke-miterlimit:4;stroke-dasharray:none;stroke-opacity:1"
       d="m 125.41093,-56.409503 v -6.414926 h 41.88095 v 6.414926 z"
       id="rect5006-2-3-4"
       inkscape:connector-curvature="0"
       sodipodi:nodetypes="ccccc" />
    <path
       style="opacity:1;fill:none;stroke:#000000;stroke-width:0.1;stroke-miterlimit:4;stroke-dasharray:none;stroke-opacity:1"
       d="m 33.445828,-56.409503 v -6.414926 h 41.88093 l 3e-6,6.414926 z"
       id="rect5006-2-2-1-7"
       inkscape:connector-curvature="0"
       sodipodi:nodetypes="ccccc" />
    <path
       style="opacity:1;fill:none;stroke:#000000;stroke-width:0.1;stroke-linecap:butt;stroke-linejoin:miter;stroke-miterlimit:4;stroke-dasharray:none;stroke-opacity:1"
       d="m 299.43907,264.31378 137.2831,10e-6 v -26.86143 l 7.46046,-5e-5 -0.004,-41.87172 -7.45646,0.003 v -50.07354 l 7.4604,-0.002 -0.004,-41.86771 h -7.45641 V 53.569186 l 25.59892,-0.06022 -0.032,-15.938899 L 426.58554,1.8592175 395.97698,10.060788 373.56995,-12.346215 312.52012,4.0683375 279.77135,126.2884 l 22.4241,22.41161 30.4325,-8.24872 24.6053,-91.828144 30.52874,-8.183599 22.16983,22.169861 -32.49469,122.615122 -61.08358,16.15062 -22.29952,-22.31607 -30.58583,8.07347 -8.74019,32.61867 44.71106,44.56256"
       id="path1017"
       inkscape:connector-curvature="0"
       sodipodi:nodetypes="ccccccccccccccccccccccccccccc" />
    <path
       style="opacity:1;fill:none;stroke:#000000;stroke-width:0.1;stroke-linecap:butt;stroke-linejoin:miter;stroke-miterlimit:4;stroke-dasharray:none;stroke-opacity:1"
       d="m 426.58554,1.8592175 8.74019,-32.6186805 -44.71106,-44.562543 -137.2831,-0.10763 v 26.969053 l -7.46046,5.1e-5 0.004,41.8717095 7.45646,-0.003 V 43.481809 l -7.4604,0.0021 0.004,41.867712 h 7.45642 v 50.071039 l -25.59893,0.0606 m 0.032,15.93852 35.70354,35.71084"
       id="path1017-7"
       inkscape:connector-curvature="0"
       sodipodi:nodetypes="cccccccccccccccc" />
    <path
       style="opacity:1;fill:none;stroke:#000000;stroke-width:0.1;stroke-linecap:butt;stroke-linejoin:miter;stroke-miterlimit:4;stroke-dasharray:none;stroke-opacity:1"
       d="M -7.1661666,251.06984 V -62.901353 l 12.96454,-12.96453 208.9707866,-3e-5 12.96452,12.96456 h -10.35762 v 6.56875 h 10.35762 V 244.50111 h -10.35762 v 6.56873 h 10.35762 l -12.96453,12.96453 H 5.7983734 Z"
       id="path1287-2"
       inkscape:connector-curvature="0"
       sodipodi:nodetypes="ccccccccccccccc" />
  </g>
</svg>
